<?xml version="1.0" encoding="UTF-8" standalone="no"?>
<!-- Created with Inkscape (http://www.inkscape.org/) -->

<svg
   xmlns:dc="http://purl.org/dc/elements/1.1/"
   xmlns:cc="http://creativecommons.org/ns#"
   xmlns:rdf="http://www.w3.org/1999/02/22-rdf-syntax-ns#"
   xmlns:svg="http://www.w3.org/2000/svg"
   xmlns="http://www.w3.org/2000/svg"
   xmlns:sodipodi="http://sodipodi.sourceforge.net/DTD/sodipodi-0.dtd"
   xmlns:inkscape="http://www.inkscape.org/namespaces/inkscape"
   id="svg3153"
   version="1.1"
   inkscape:version="0.48.3.1 r9886"
   width="1221"
   height="1125"
   sodipodi:docname="quantization.png">
  <metadata
     id="metadata3159">
    <rdf:RDF>
      <cc:Work
         rdf:about="">
        <dc:format>image/svg+xml</dc:format>
        <dc:type
           rdf:resource="http://purl.org/dc/dcmitype/StillImage" />
        <dc:title></dc:title>
      </cc:Work>
    </rdf:RDF>
  </metadata>
  <defs
     id="defs3157" />
  <sodipodi:namedview
     pagecolor="#ffffff"
     bordercolor="#666666"
     borderopacity="1"
     objecttolerance="10"
     gridtolerance="10"
     guidetolerance="10"
     inkscape:pageopacity="0"
     inkscape:pageshadow="2"
     inkscape:window-width="1024"
     inkscape:window-height="1260"
     id="namedview3155"
     showgrid="false"
     inkscape:zoom="0.36977887"
     inkscape:cx="335.19004"
     inkscape:cy="562.5"
     inkscape:window-x="0"
     inkscape:window-y="0"
     inkscape:window-maximized="1"
     inkscape:current-layer="svg3153" />
  <path
     style="fill:#000000"
     d="m 853.06134,1081.5739 c -1.57617,-1.8992 -0.98927,-10.1599 0.69774,-9.8209 1.00171,0.2013 1.20613,-10.2239 1,-51 L 854.5,969.5 844,968.96043 c -11.12012,-0.57144 -13.48313,-1.17111 -14.43993,-3.6645 C 828.23817,961.85113 830.82615,961 842.62244,961 L 854,961 l 0,-2.57153 c 0,-1.41435 0.19424,-8.27685 0.43165,-15.25 0.2374,-6.97316 0.55719,-45.75347 0.71063,-86.17847 l 0.27898,-73.5 -6.71063,-0.29569 C 842.29342,782.92155 842,782.79903 842,780.40229 c 0,-1.83963 -0.737,-2.76325 -2.77061,-3.47217 -1.52383,-0.53121 -3.28801,-1.79434 -3.9204,-2.80695 -1.08072,-1.73052 -0.54563,-1.87441 8.90794,-2.39533 6.43014,-0.35432 10.33616,-1.00473 10.82971,-1.80331 0.4246,-0.68701 0.7003,-37.96358 0.61268,-82.83682 L 855.5,605.5 l -11.38222,0.27838 c -9.00909,0.22033 -11.88198,-0.0491 -13.77923,-1.29221 -1.97083,-1.29134 -2.16511,-1.80247 -1.09269,-2.87489 0.71737,-0.71737 2.94777,-1.61263 4.95645,-1.98945 2.00867,-0.37683 3.79738,-1.10281 3.97491,-1.61329 0.17753,-0.51048 4.04944,-1.23711 8.60424,-1.61474 4.55481,-0.37763 8.5005,-1.041 8.7682,-1.47415 1.068,-1.72807 1.08184,-171.02931 0.014,-171.70215 -0.58503,-0.36863 -4.21369,-0.68087 -8.06369,-0.69387 -8.46494,-0.0286 -11.69049,-1.96196 -13.80322,-8.27363 l -1.42262,-4.25 11.8039,0 c 6.49215,0 12.00956,-0.3375 12.26092,-0.75 0.25135,-0.4125 0.76903,-6.63561 1.1504,-13.82914 0.65355,-12.32753 0.72154,-26.2141 0.40359,-82.42086 -0.0731,-12.925 -0.0353,-34.83484 0.0841,-48.68854 0.11934,-13.85369 -0.10202,-25.7047 -0.49192,-26.33556 -0.42423,-0.68643 -2.97293,-1.06472 -6.347,-0.94206 -11.19505,0.40699 -17.64712,-0.10427 -19.55748,-1.54974 -1.85975,-1.40717 -1.8627,-1.51493 -0.095,-3.4682 1.0034,-1.10874 2.85306,-2.0159 4.11036,-2.0159 1.2573,0 2.56411,-0.45 2.90403,-1 0.33992,-0.55 4.36833,-1 8.95203,-1 5.77695,0 8.46261,-0.38353 8.7532,-1.25 0.33888,-1.01048 0.18493,-119.90004 -0.16671,-128.75 -0.0853,-2.147402 -0.23952,-2.259573 -1.09326,-0.795318 -0.54665,0.937575 -1.14433,3.478728 -1.32816,5.647008 -0.33458,3.94638 -2.72729,8.24081 -7.46508,13.39831 -2.74281,2.9858 -5.36644,3.37356 -11.43096,1.68943 l -3.77893,-1.04942 1.85434,-2.695 c 1.01989,-1.48226 2.47106,-4.23853 3.22483,-6.12505 0.75377,-1.88652 2.83575,-5.34964 4.62663,-7.69581 5.00958,-6.562916 7.26234,-11.683115 8.2696,-18.795613 0.50703,-3.580325 1.19563,-6.952611 1.5302,-7.493969 0.33458,-0.541358 0.85679,-7.86935 1.16046,-16.284427 0.95944,-26.586944 1.05718,-28.241472 1.83211,-31.014306 0.79644,-2.849835 4.11056,-4.63498 5.6839,-3.061634 0.50758,0.507581 1.09935,5.614782 1.31505,11.349337 0.21569,5.734554 0.96628,12.901462 1.66798,15.926462 0.7017,3.025 1.1617,5.921307 1.02222,6.436238 -0.23779,0.877844 1.5316,9.294965 4.11256,19.563762 0.62207,2.475 1.69812,4.95 2.39122,5.5 1.44778,1.148859 4.57265,9.745275 3.24399,8.924121 C 872.39475,91.125936 872,91.372647 872,91.972368 c 0,0.599721 0.64659,1.33852 1.43686,1.641776 0.79027,0.303255 1.21441,1.131063 0.94253,1.839572 -0.27188,0.70851 0.14863,1.534925 0.93446,1.836478 0.78584,0.301554 1.74758,1.818443 2.13722,3.370866 0.38963,1.55242 1.35853,3.50127 2.15312,4.33076 3.47435,3.62703 8.22411,10.47697 7.772,11.20851 -0.27182,0.43982 -1.79226,0.79967 -3.37874,0.79967 -2.1759,0 -3.6968,-1.01044 -6.19099,-4.1131 -1.81855,-2.2622 -4.67031,-5.7497 -6.33724,-7.75 -1.66693,-2.00029 -3.86925,-6.1119 -4.89404,-9.1369 -3.15527,-9.313754 -3.48294,-8.936504 -3.47435,4 0.005,6.875 -0.24665,38.20292 -0.55826,69.6176 -0.44963,45.32855 -0.30609,57.32529 0.69543,58.12385 1.33265,1.0626 9.21073,2.5903 14.262,2.76566 6.92073,0.24027 13.5,1.71696 13.5,3.03002 0,3.89687 -12.55106,6.10485 -19.5583,3.44071 -3.33442,-1.26775 -9.11108,-0.2818 -9.86535,1.6838 -0.30921,0.80578 0.10834,2.76172 0.92788,4.34654 1.14562,2.21539 1.46548,6.41949 1.38369,18.18665 -0.0585,8.41785 -0.16973,45.33428 -0.24715,82.03652 L 863.5,409.9627 l 10.04358,-0.41883 c 8.96288,-0.37376 10.4693,-0.18075 14,1.79375 4.69007,2.62285 5.68747,6.23832 2.51339,9.11083 -1.70689,1.54471 -3.99535,1.88239 -14.09619,2.08 -6.63216,0.12975 -12.32635,0.50379 -12.65376,0.83119 -0.3274,0.32741 -0.69268,39.04591 -0.81174,86.04112 l -0.21646,85.44584 12.82773,0.3267 c 14.83852,0.37791 16.70459,1.20141 14.84039,6.54906 -0.59768,1.71451 -1.84275,3.42371 -2.76682,3.79823 -0.92406,0.37452 -6.96762,0.62121 -13.43012,0.5482 l -11.75,-0.13275 0,82.59592 0,82.59592 10.30522,-0.31394 c 10.07431,-0.30691 10.38112,-0.25013 13.69273,2.53367 4.20598,3.53563 4.60813,6.44276 1.09126,7.88867 -1.42407,0.58548 -7.53921,1.33433 -13.58921,1.66411 l -11,0.59961 -0.62484,22 c -0.48226,16.98017 -1.28358,147.88477 -0.94464,154.31892 0.0506,0.96054 1.76773,1.27878 6.31948,1.17122 12.20648,-0.28846 13.62212,-0.0976 14.73773,1.98694 1.694,3.16526 -1.8858,6.02292 -7.54491,6.02292 -2.50645,0 -6.55734,0.50365 -9.00198,1.11921 l -4.4448,1.11922 0.0218,53.86257 c 0.0169,41.6245 -0.26452,54.3211 -1.23856,55.8807 -1.46295,2.3426 -5.0061,2.6549 -6.71799,0.5922 z M 1044.5021,982.75 c -1.318,-4.05617 -0.4008,-13.0581 2.485,-24.38701 1.5603,-6.12535 3.8298,-17.82535 5.0434,-26 2.6168,-17.62681 3.8838,-21.36299 7.2442,-21.36299 1.3072,0 3.3177,1.0125 4.4678,2.25 2.3688,2.54874 6.2497,12.89024 6.2728,16.71534 0.019,3.07186 0.8264,4.38898 3.5801,5.8374 2.9034,1.52714 5.4966,-0.47232 9.3519,-7.21058 1.6961,-2.96459 3.7722,-5.65428 4.6135,-5.9771 0.8412,-0.32282 2.1699,-2.05577 2.9526,-3.851 0.7826,-1.79523 3.4032,-5.50074 5.8234,-8.23446 4.1092,-4.64152 4.5709,-4.8927 6.9778,-3.79602 1.8488,0.84237 2.78,2.24755 3.2937,4.9704 0.7274,3.85582 -1.1303,22.43892 -2.5247,25.25516 -0.4196,0.84747 -0.8666,8.7774 -0.9933,17.62205 -0.3383,23.6103 -2.7702,31.73347 -8.0656,26.94118 -1.9938,-1.80437 -2.0858,-2.79132 -1.9539,-20.95796 0.08,-11.06747 0.7406,-22.78904 1.574,-27.9438 0.7896,-4.88367 1.2892,-9.31854 1.1103,-9.85527 -0.5156,-1.54695 -6.1855,8.27331 -7.6412,13.23466 -1.3476,4.59313 -3.0928,6.848 -6.8612,8.86474 -2.9313,1.56883 -4.3522,1.44409 -10.7294,-0.94191 -5.7892,-2.16601 -8.5071,-5.38829 -8.5386,-10.12317 -0.033,-4.87856 -1.8236,0.6222 -2.4822,7.62323 -0.3662,3.89241 -1.3387,9.55211 -2.161,12.57711 -1.9502,7.17338 -2.8908,11.18983 -4.3324,18.5 -1.0892,5.52353 -4.9645,12.5 -6.9434,12.5 -0.4578,0 -1.1614,-1.0125 -1.5636,-2.25 z M 739.5,968.47124 c -3.3,-0.75047 -13.84967,-1.86582 -23.4437,-2.47856 -9.59404,-0.61274 -17.75301,-1.30524 -18.13105,-1.53888 -0.37804,-0.23364 -5.8477,-0.87718 -12.1548,-1.43009 -16.59715,-1.45498 -33.36386,-4.89584 -36.77045,-7.54602 -1.9342,-1.50472 -31.0943,-11.72791 -41.5,-14.54941 -7.35091,-1.9932 -11.99179,-3.91463 -20,-8.28045 -1.65,-0.89953 -3.52553,-1.63828 -4.16784,-1.64167 -1.15687,-0.006 -4.75845,-1.79904 -17.33216,-8.6283 -3.575,-1.94172 -7.5853,-3.85533 -8.91177,-4.25248 -1.32647,-0.39714 -2.53946,-1.59215 -2.69554,-2.65558 -0.15608,-1.06342 -0.78348,-2.10006 -1.39422,-2.30364 -0.61074,-0.20358 -2.99775,-1.87286 -5.30446,-3.70952 -2.3067,-1.83665 -9.59361,-6.62218 -16.19312,-10.6345 C 521.43645,892.70322 511.73093,885.3747 503.92511,878 c -0.87322,-0.825 -5.33652,-4.875 -9.91842,-9 -8.90044,-8.01289 -26.53428,-26.87957 -33.04268,-35.35279 C 458.78951,830.81624 453.97257,824 450.25969,818.5 446.54681,813 443.28198,808.275 443.0045,808 c -0.27747,-0.275 -4.38215,-6.35 -9.1215,-13.5 -10.52509,-15.87863 -17.98695,-30.19973 -28.65716,-55 -5.16575,-12.00652 -17.0578,-48.73198 -18.29523,-56.5 -0.39426,-2.475 -1.66494,-9.22411 -2.82373,-14.99802 -1.15878,-5.77391 -2.10939,-12.29891 -2.11246,-14.5 -0.003,-2.20109 -0.41586,-5.57698 -0.91732,-7.50198 -0.50146,-1.925 -1.22756,-6.875 -1.61356,-11 -0.386,-4.125 -1.02671,-10.65 -1.42382,-14.5 -1.62908,-15.79428 0.20571,-58.08533 3.55755,-82 1.3209,-9.42429 4.31884,-26.27168 5.24945,-29.5 3.86765,-13.41719 15.95846,-45.81117 20.15508,-54 3.61534,-7.05457 6.9982,-14.72994 6.9982,-15.87819 0,-1.56045 5.31803,-12.0354 10.13908,-19.97102 2.12351,-3.49536 3.86092,-7.38172 3.86092,-8.63636 0,-1.43692 0.73705,-2.47391 1.99151,-2.80196 1.09532,-0.28643 2.78282,-1.94255 3.75,-3.68026 0.96717,-1.73771 4.34599,-6.7151 7.50849,-11.06086 3.1625,-4.34576 5.75,-8.15593 5.75,-8.46703 0,-0.31111 3.2625,-4.94593 7.25,-10.2996 3.9875,-5.35368 8.48769,-11.55184 10.00042,-13.7737 1.51274,-2.22186 4.55485,-5.81528 6.76025,-7.98538 2.2054,-2.1701 5.46308,-5.52064 7.23927,-7.44564 8.22516,-8.91422 16.54521,-16.5243 31.70552,-29 20.55992,-16.91914 27.22806,-21.85445 40.53329,-30 5.83953,-3.575 14.08096,-8.71307 18.31429,-11.41792 13.82319,-8.83225 29.13275,-15.5044 58.91728,-25.67711 2.87118,-0.98064 6.69618,-2.4566 8.5,-3.27992 11.92656,-5.44366 45.24209,-12.31609 70.71161,-14.58662 10.33398,-0.92124 11.61662,-0.85197 13.35498,0.72122 1.05769,0.95719 1.98832,1.60791 2.06808,1.44603 0.65389,-1.32714 18.65131,-3.85023 26.14501,-3.66532 17.72461,0.43736 36.88484,2.41591 38.43819,3.96925 2.5923,2.59231 0.10218,3.4864 -6.94694,2.49433 -3.57019,-0.50246 -12.45375,-1.13076 -19.74125,-1.39623 -12.67853,-0.46185 -13.25,-0.39772 -13.25,1.48693 0,1.88748 1.91207,6.7397 3.90331,9.90536 2.28039,3.62534 8.23306,16.31666 10.58963,22.57747 1.41498,3.75926 3.45793,7.65974 4.53988,8.66773 1.08195,1.00799 1.96718,2.66704 1.96718,3.68677 0,1.01973 0.675,2.11307 1.5,2.42966 2.21722,0.85083 1.82205,3.98719 -0.81445,6.46406 -3.05881,2.87359 -5.05234,2.74335 -10.09441,-0.6595 -2.3094,-1.55859 -5.58338,-3.31644 -7.27553,-3.90632 l -3.07662,-1.07252 -0.45055,4.15633 c -0.2478,2.28597 -0.3206,35.43132 -0.16179,73.65632 0.15881,38.225 0.30625,103.65205 0.32765,145.39344 0.0214,41.74139 0.40247,76.39139 0.84684,77 0.44436,0.60861 1.37075,2.41979 2.05864,4.02485 1.12237,2.61886 1.0892,2.78426 -0.3233,1.61199 -1.30981,-1.08705 -1.87779,-1.03137 -3.38398,0.33171 -2.16714,1.96124 -3.55619,2.07072 -4.9228,0.38801 -0.66751,-0.82191 -1.23801,-45.25807 -1.66581,-129.75 -0.64104,-126.60699 -1.21204,-172.98149 -2.14133,-173.91078 -0.57419,-0.57419 -6.38996,1.3843 -12.19305,4.10608 -4.89227,2.29458 -6.76559,1.917 -8.4115,-1.69538 -1.05144,-2.30765 -0.83181,-2.88462 2.25865,-5.93365 1.88284,-1.8576 3.43929,-3.75744 3.45878,-4.22186 0.0195,-0.46443 0.59782,-1.85691 1.28518,-3.09441 0.68736,-1.2375 0.95906,-2.25 0.60378,-2.25 -0.35528,0 0.2492,-0.7875 1.3433,-1.75 2.69494,-2.3708 5.26971,-10.97672 6.3577,-21.25 0.4951,-4.675 1.17355,-10.48435 1.50765,-12.90967 l 0.60747,-4.40967 -10.87026,0.64629 C 704.79035,235.49107 678.59652,239.435 659,244.16956 631.89038,250.71931 595.54837,264.91654 573,277.76599 522.45208,306.57131 487.02606,337.74768 453.42155,383 c -6.1355,8.26215 -13.69884,19.14041 -15.71846,22.60767 -1.02437,1.75863 7.12135,5.15454 14.29691,5.96031 3.575,0.40144 11.33013,0.85677 17.23363,1.01183 5.90349,0.15505 11.19099,0.56459 11.75,0.91007 0.559,0.34549 1.47735,0.34325 2.04077,-0.005 2.01645,-1.24624 6.9756,0.5858 6.9756,2.57698 0,2.36455 -7.38137,10.11428 -11.75,12.33636 -1.7875,0.90921 -3.25,2.31654 -3.25,3.12742 0,0.81088 -0.47656,1.47432 -1.05902,1.47432 -1.99166,0 0.10164,1.88098 4.58534,4.12024 2.46455,1.23086 5.33146,3.03024 6.37089,3.99863 1.03944,0.96838 2.09867,1.55192 2.35384,1.29675 0.25517,-0.25518 1.03317,0.22192 1.72889,1.06021 0.69572,0.8383 1.66677,1.52417 2.15789,1.52417 0.49112,0 3.24852,1.51126 6.12755,3.35836 8.27191,5.30699 32.87986,20.25691 36.73462,22.31716 1.925,1.02885 5.975,3.46287 9,5.40893 10.65808,6.85662 12.01822,7.5041 12.86967,6.12643 0.60359,-0.97663 1.3816,-0.80107 3.36544,0.75941 1.41919,1.11634 2.86462,2.02971 3.21207,2.02971 0.34745,0 5.00147,2.82389 10.34227,6.2753 5.3408,3.45142 11.06055,6.93892 12.71055,7.75 1.65,0.81109 4.8,2.66298 7,4.11531 2.2,1.45234 6.25,3.86888 9,5.37009 2.75,1.50122 9.275,5.5459 14.5,8.98818 5.225,3.44229 13.55,8.66956 18.5,11.61615 4.95,2.9466 9.9,5.91083 11,6.58717 1.1,0.67634 3.8,2.14797 6,3.27029 8.26033,4.21398 16.38524,8.88866 29,16.6852 14.02825,8.67015 29.67755,17.79685 35.84481,20.90477 4.63223,2.33435 11.67903,8.33751 9.85553,8.39591 -0.71481,0.0229 -2.62731,-0.64493 -4.25,-1.48405 -1.62269,-0.83912 -2.94912,-1.17662 -2.94764,-0.75 10e-4,0.42662 1.68899,1.67568 3.75,2.77568 3.84274,2.05094 5.43659,5.71071 3.38187,7.76543 -1.16258,1.16258 -9.76551,-3.06012 -24.63457,-12.09176 -4.95,-3.00669 -10.63607,-6.41328 -12.63572,-7.57019 C 685.34022,571.5646 668.873,561.4974 652.5,551.37225 c -4.4,-2.72098 -11.15,-6.69854 -15,-8.83903 -3.85,-2.14048 -9.025,-5.30416 -11.5,-7.03039 -4.28718,-2.99016 -19.80231,-12.52852 -54,-33.19803 -8.525,-5.15262 -17.525,-10.64821 -20,-12.21242 -2.475,-1.56422 -11.475,-6.99477 -20,-12.06789 -8.525,-5.07312 -19.325,-11.64027 -24,-14.59367 -8.67093,-5.4778 -15.89964,-9.7527 -31,-18.33271 l -8.5,-4.8297 -1.10136,8.6158 c -1.36619,10.68749 -1.86292,12.26388 -4.70611,14.93492 -1.95864,1.84004 -2.76853,1.99867 -5.85427,1.14666 -3.3167,-0.91579 -3.70961,-1.44659 -5.32043,-7.1875 -0.9566,-3.40928 -2.58944,-7.78494 -3.62855,-9.72368 C 446.85018,446.11586 446,443.78794 446,442.88144 c 0,-0.9065 -0.90356,-1.88446 -2.0079,-2.17326 -1.10435,-0.28879 -2.79185,-2.26744 -3.75,-4.39699 -0.95816,-2.12955 -2.7546,-4.95561 -3.9921,-6.28012 -1.2375,-1.3245 -2.25,-3.25292 -2.25,-4.28537 0,-2.59942 -1.81711,-5.7457 -3.31838,-5.7457 -0.68641,0 -3.46857,4.3875 -6.18258,9.75 -2.71401,5.3625 -5.50175,10.44958 -6.19497,11.30461 -2.32363,2.86603 -13.97197,31.30753 -18.2028,44.44539 -6.76515,21.00763 -6.92812,21.57363 -9.06988,31.5 -1.12736,5.225 -2.48832,11.525 -3.02434,14 -1.44448,6.66969 -3.11503,17.75715 -3.61609,24 -0.24279,3.025 -0.87854,10.45 -1.41278,16.5 -1.47111,16.65961 -1.29926,26.5 0.4628,26.5 0.79254,0 1.67743,-0.38257 1.96641,-0.85016 0.28899,-0.46759 3.57805,-1.8311 7.30902,-3.03003 3.73097,-1.19893 8.46394,-3.40385 10.51771,-4.89984 9.89925,-7.21071 16.63391,-12.97314 18.08007,-15.46997 1.56592,-2.70362 4.98163,-3.6984 6.15882,-1.79367 0.32507,0.52598 1.17953,0.7305 1.8988,0.45449 0.71927,-0.27601 1.85775,0.16085 2.52995,0.97081 1.64878,1.98665 -0.51276,9.33982 -3.16238,10.75785 -1.04978,0.56183 -2.52894,2.50596 -3.28702,4.32029 -0.75807,1.81433 -2.4584,4.59061 -3.77851,6.16951 -3.71099,4.4385 -4.19962,7.02465 -1.4544,7.69767 2.49416,0.61147 113.95534,-0.10858 125.28055,-0.80932 3.85,-0.23821 35.125,-0.66931 69.5,-0.95798 34.375,-0.28867 66.775,-0.78282 72,-1.09811 15.09946,-0.91113 22.17184,-1.43255 27,-1.99062 10.80552,-1.24897 20.45079,-0.88432 23.12924,0.87442 2.11118,1.38626 2.73104,1.46114 3.14591,0.38002 0.72287,-1.88377 8.30511,-3.97646 11.70331,-3.23009 5.36908,1.17925 6.28387,9.25293 1.61301,14.23599 -1.68368,1.79621 -2.77389,2.11136 -5.59147,1.61635 -5.41975,-0.95218 -8.70186,-3.02358 -9.43797,-5.95648 l -0.67231,-2.6787 -1.56183,2.22983 c -1.13077,1.61439 -2.15055,2.05048 -3.69486,1.58001 -2.46714,-0.75161 -45.26486,-0.86785 -46.46487,-0.1262 -0.96456,0.59613 -7.91815,0.68607 -54.66816,0.70705 -19.8,0.009 -57.15,0.30989 -83,0.66891 -25.85,0.35902 -65.97027,0.53183 -89.15616,0.38402 -28.42403,-0.1812 -42.36581,0.0705 -42.79977,0.77265 -0.35399,0.57277 0.61628,2.33479 2.15615,3.91561 5.60592,5.75497 9.29978,10.50236 9.29978,11.95218 0,0.81566 0.77726,2.05137 1.72724,2.74602 1.40036,1.02396 1.53839,1.8 0.72934,4.10052 -0.54885,1.56065 -1.80351,2.99268 -2.78813,3.1823 -2.58463,0.49776 -8.4956,-2.54205 -13.54446,-6.96543 -2.40681,-2.10863 -6.90681,-5.02624 -10,-6.48356 -3.0932,-1.45733 -6.97061,-3.77595 -8.61648,-5.15249 -3.85785,-3.22657 -11.589,-6.54236 -12.68915,-5.44221 -1.47638,1.47638 2.79989,42.38216 6.09769,58.32893 0.49925,2.41419 1.45207,7.08943 2.11737,10.38943 0.6653,3.3 2.04697,8.475 3.07038,11.5 1.02341,3.025 2.32264,7.6465 2.88719,10.27 2.83354,13.16772 22.15239,60.82603 26.73765,65.95997 1.43956,1.61182 1.73395,1.43216 4.31045,-2.63055 1.52095,-2.39829 3.2776,-4.67711 3.90366,-5.06404 1.63143,-1.00828 6.05725,-8.23679 6.05725,-9.89306 0,-0.76859 0.62077,-1.91262 1.37949,-2.5423 0.75871,-0.62968 1.6678,-2.58648 2.0202,-4.34845 0.35239,-1.76197 1.56492,-5.11273 2.6945,-7.44614 1.69038,-3.49187 2.68508,-4.361 5.6215,-4.91187 3.00461,-0.56367 3.84461,-0.30221 5.32212,1.65656 2.57879,3.41879 3.20826,10.57138 1.44243,16.39038 -0.91559,3.01718 -1.14009,5.29965 -0.57668,5.86306 0.5634,0.5634 3.58415,-0.51448 7.7595,-2.76879 3.76032,-2.03024 11.11194,-5.95898 16.33694,-8.73053 18.11311,-9.60792 24.50164,-13.21095 24.83333,-14.00563 0.18334,-0.43924 1.10584,-0.79861 2.05,-0.79861 0.94417,0 2.26375,-0.54708 2.9324,-1.21573 0.66866,-0.66866 4.75647,-3.03116 9.08403,-5.25 19.72684,-10.11445 24.37402,-12.58833 26.89816,-14.31899 1.48614,-1.01896 6.52708,-3.79968 11.20208,-6.17937 4.675,-2.37969 10.75,-5.55188 13.5,-7.04931 2.75,-1.49744 8.15,-4.42622 12,-6.50841 3.85,-2.0822 8.19447,-4.6166 9.65437,-5.632 1.4599,-1.0154 2.93851,-1.84619 3.28578,-1.84619 0.34728,0 10.40281,-5.47107 22.34563,-12.15794 C 629.7286,661.1552 644.45,653.05077 650.5,649.83221 c 6.05,-3.21855 12.125,-6.4871 13.5,-7.26345 4.51163,-2.54734 19.40641,-10.80291 24,-13.30222 2.475,-1.34661 5.21043,-3.08247 6.07874,-3.85746 0.86831,-0.775 1.9399,-1.40908 2.38133,-1.40908 0.44142,0 4.80604,-2.291 9.69916,-5.09112 4.89311,-2.80011 9.90077,-5.20135 11.12813,-5.33608 2.88918,-0.31715 6.71264,-2.37223 6.71264,-3.60798 0,-1.6907 3.62495,-1.03673 5.45356,0.98387 1.7041,1.88301 1.65035,2.01769 -1.59501,3.99626 -1.8472,1.12616 -4.01665,2.04926 -4.82099,2.05131 -0.80433,0.002 -2.37933,1.10306 -3.5,2.44667 -1.12066,1.34361 -6.98756,5.00978 -13.03756,8.14705 -6.05,3.13726 -14.15,7.59649 -18,9.9094 -3.85,2.31291 -13.75,7.71609 -22,12.00708 -8.25,4.29098 -20.4,10.81345 -27,14.49438 -15.24489,8.50233 -20.84787,11.56695 -32,17.50284 -4.95,2.63471 -10.67856,5.84922 -12.73013,7.14335 -2.05157,1.29413 -3.88529,2.35297 -4.07494,2.35297 -0.18965,0 -5.26109,2.74603 -11.26987,6.10228 -6.00878,3.35625 -15.20006,8.33868 -20.42506,11.07206 -13.66664,7.14951 -23.56347,12.42245 -31,16.51651 -3.575,1.96816 -11.225,6.06696 -17,9.10843 -5.775,3.04148 -12.075,6.49858 -14,7.68244 -1.925,1.18387 -10.1375,5.67072 -18.25,9.97079 C 465.09186,758.69207 461.86111,761 465.38499,761 c 0.76174,0 2.05018,1.0152 2.86318,2.256 0.86499,1.32015 3.36581,2.76086 6.02856,3.47304 3.89618,1.04207 4.71733,1.72294 5.7117,4.73591 0.63873,1.93538 1.01514,4.26256 0.83645,5.17152 -0.46364,2.35852 -6.72361,2.7613 -13.98871,0.90007 -7.10904,-1.82125 -11.02196,-1.95075 -12.55712,-0.41559 -1.18005,1.18005 -11.8286,2.96666 -19.02905,3.19269 -2.3375,0.0734 -4.25,0.33255 -4.25,0.57595 0,1.74131 21.36475,33.78116 29.41362,44.11041 23.93925,30.72163 56.40207,60.61496 85.08638,78.35166 3.3,2.04053 9.375,5.85012 13.5,8.46577 9.52774,6.0415 24.08329,13.79327 35,18.63978 4.675,2.07548 11.55378,5.30469 15.28617,7.17601 9.27729,4.6514 15.54876,6.99213 26.71383,9.97054 45.93891,12.2547 60.23473,14.83664 88.25,15.93869 12.85326,0.50561 17.75,0.38917 17.75,-0.42211 C 742,962.50415 741.18855,962 740.19678,962 c -1.18836,0 -2.63754,-1.75889 -4.25,-5.15831 C 728.97781,942.14964 727.3141,939.47621 724.22137,938 c -1.73172,-0.82658 -3.69886,-2.84684 -4.38167,-4.5 -0.68151,-1.65 -2.04924,-3.58802 -3.0394,-4.3067 -0.99017,-0.71869 -1.8003,-1.90109 -1.8003,-2.62756 0,-0.72647 -0.675,-1.88105 -1.5,-2.56574 -0.825,-0.68469 -1.5,-1.91233 -1.5,-2.72809 0,-0.81576 -1.11811,-2.812 -2.4847,-4.43609 -2.40758,-2.86125 -2.43157,-3.03643 -0.7731,-5.64436 2.36496,-3.71885 2.96433,-4.0102 7.11549,-3.45877 3.6329,0.48258 18.61657,7.60762 19.70621,9.37071 0.31586,0.51107 0.98329,0.67645 1.48317,0.36751 0.52965,-0.32734 0.96224,-30.68832 1.0368,-72.76631 0.0704,-39.71253 0.23469,-74.6796 0.36518,-77.7046 0.13049,-3.025 0.30784,-37.57364 0.3941,-76.77475 L 739,618.9505 l 2.67319,-1.01635 c 4.22851,-1.60767 5.20067,0.28999 5.41283,10.56585 0.1022,4.95 -0.1228,47.025 -0.49999,93.5 -0.3772,46.475 -0.68262,86.975 -0.67873,90 0.004,3.025 -0.0121,18.1 -0.0355,33.5 -0.0234,15.4 0.0698,29.125 0.20717,30.5 0.26829,2.68566 0.26946,3.3878 0.0405,24.31982 -0.1499,13.70283 0.46481,18.03633 1.97817,13.94533 0.46952,-1.26925 2.05804,-2.35272 4.08531,-2.78644 1.82439,-0.39031 3.91387,-1.19126 4.64329,-1.77988 0.96698,-0.78033 1.5599,-0.69211 2.18895,0.32571 0.72046,1.16574 1.17875,1.10994 2.77916,-0.33841 1.80631,-1.63469 5.20567,-1.43603 5.20567,0.30423 0,0.42701 0.9,1.01173 2,1.29939 1.1,0.28766 2,1.30922 2,2.27014 0,2.3638 -4.69784,12.15385 -6.30766,13.14483 -1.57942,0.97226 -10.20788,15.83279 -11.20341,19.29528 -0.39534,1.375 -1.57633,3.43885 -2.62443,4.58634 -1.45894,1.5973 -1.76588,2.96568 -1.30945,5.8377 0.4319,2.71762 0.14406,4.25096 -1.04457,5.56438 -0.90242,0.99716 -1.27395,2.03448 -0.82562,2.30514 0.88639,0.53513 27.02947,-0.9219 31.66282,-1.76467 3.79729,-0.69069 7.65232,0.35691 7.65232,2.07952 0,0.76537 -0.3375,1.44902 -0.75,1.51921 -8.18448,1.39271 -21.64607,2.81028 -30.75,3.23813 -6.49258,0.30513 -12.10445,-0.009 -16,-0.89451 z m 251,0.34387 c -3.85,-0.49552 -12.25626,-0.85039 -18.68057,-0.7886 -10.56226,0.10159 -11.8787,-0.0858 -13.75,-1.95708 -2.11486,-2.11486 -2.7524,-5.5293 -1.21037,-6.48233 1.14492,-0.70759 15.48305,-1.94829 21.14094,-1.82935 9.8486,0.20704 18.22354,1.18288 19.54187,2.277 0.8804,0.73067 2.87883,0.90102 5.45813,0.46525 6.7793,-1.14536 9.1154,2.47551 4.5455,7.04545 -2.7008,2.70079 -4.7438,2.85296 -17.0455,1.26966 z M 240.22251,957.4433 c -1.49503,-1.04716 -2.23032,-2.60196 -2.24637,-4.75 -0.0131,-1.75632 -0.41035,-4.85694 -0.88273,-6.89027 -0.98251,-4.22918 -12.59671,-20.74914 -20.10161,-28.59239 -2.78365,-2.90915 -4.78183,-5.74136 -4.4404,-6.2938 0.34143,-0.55245 0.0817,-1.65401 -0.57719,-2.44791 -0.65888,-0.7939 -0.91478,-2.18143 -0.56866,-3.08339 0.52897,-1.37847 1.58663,-1.53162 6.63398,-0.96058 3.30257,0.37365 7.85131,1.33088 10.1083,2.1272 7.99868,2.8221 8.33494,2.55236 8.48068,-6.80287 0.44495,-28.56166 0.41634,-39.8677 -0.10299,-40.708 -0.94189,-1.524 -1.42769,-170.24641 -0.5611,-194.87398 0.46077,-13.09481 0.40642,-24.02131 -0.1314,-26.41496 -1.06086,-4.72156 -0.20558,-5.71299 4.9492,-5.73704 2.49302,-0.0116 3.4867,0.5257 4.13259,2.23469 0.4677,1.2375 0.66285,2.56937 0.43366,2.95971 -0.41422,0.70548 -1.63507,16.37949 -1.42464,18.29029 0.0606,0.55 0.28761,32.95 0.50453,72 0.54005,97.22079 1.45844,171.15106 2.18943,176.25 0.356,2.4832 1.14439,4.25 1.89646,4.25 0.70793,0 3.69434,-1.1206 6.63645,-2.49023 4.09887,-1.90813 6.99935,-2.49252 12.40817,-2.5 13.13855,-0.0182 13.88014,4.65356 2.37746,14.9771 -3.82923,3.43669 -8.30436,8.10806 -9.94473,10.38083 -4.82733,6.68833 -9.294,16.58361 -9.48786,21.01903 -0.27832,6.36757 -0.32095,6.46739 -3.45408,8.08759 -3.66464,1.89506 -4.07998,1.89317 -6.82715,-0.031 z M 1077.0352,820.06574 c -1.7547,-3.27873 -1.1834,-5.52254 2.8847,-11.32999 2.1559,-3.07769 4.7257,-7.3148 5.7107,-9.41578 0.985,-2.10098 3.9452,-7.41997 6.5782,-11.81997 2.6331,-4.4 4.7882,-8.33074 4.7893,-8.73498 0,-1.09176 6.2957,-11.21123 7.2125,-11.59835 0.4342,-0.18334 0.7894,-1.01387 0.7894,-1.84563 0,-0.83177 0.8583,-2.71773 1.9074,-4.19104 2.3114,-3.246 10.549,-19.64797 11.6167,-23.13 0.4216,-1.375 2.6956,-5.425 5.0534,-9 3.3246,-5.04096 5.0877,-6.74709 7.8547,-7.60079 1.9623,-0.60544 3.5678,-0.84999 3.5678,-0.54345 0,0.30655 -1.7851,3.10216 -3.9668,6.21248 -2.1818,3.11032 -4.4868,7.85486 -5.1223,10.54344 -1.788,7.56529 -3.9793,13.42714 -7.0608,18.88832 -1.5517,2.75 -5.5804,10.57988 -8.9527,17.39974 -3.3723,6.81985 -8.1216,15.47609 -10.5539,19.23609 -2.4323,3.75999 -5.0211,8.53336 -5.7529,10.60748 -1.8545,5.25615 -7.1219,12.7974 -11.0102,15.76317 -3.9318,2.9989 -4.2238,3.02835 -5.5452,0.55926 z m 61.4988,-10.57945 c -7.7014,-5.05824 -8.3262,-5.05461 -15.0627,0.0874 -5.3175,4.05894 -6.3873,4.16559 -8.7826,0.87552 -2.4747,-3.39929 -1.5342,-5.5675 4.6128,-10.63389 11.7824,-9.71107 23.9764,-21.71129 27.1166,-26.68571 2.5365,-4.01799 3.5199,-8.803 2.236,-10.88026 -1.1294,-1.8274 -9.7608,-1.56342 -12.5404,0.38353 -2.9872,2.09233 -4.2712,0.40311 -3.0172,-3.96943 1.7045,-5.94313 5.3785,-7.39836 14.007,-5.54789 9.0493,1.94073 12.8133,10.50819 8.6262,19.63439 -1.0725,2.3375 -2.3504,4.25 -2.8398,4.25 -0.4895,0 -0.8899,0.78285 -0.8899,1.73967 0,0.95682 -3.6695,5.18927 -8.1544,9.40545 l -8.1543,7.66577 2.4043,2.94859 c 4.2932,5.26488 6.9036,5.54639 14.9003,1.60682 6.8806,-3.38965 7.0575,-3.42064 9.4764,-1.66021 2.9238,2.12794 2.9845,2.50992 1.0061,6.33568 -1.8524,3.58224 -10.8414,8.93596 -15.0253,8.94885 -1.9421,0.006 -5.5386,-1.62721 -9.9191,-4.50433 z m -104.1201,-23.67931 c -1.0059,-3.06508 -0.6042,-9.06626 1.0579,-15.80698 3.7193,-15.08359 4.7678,-18.54319 6.923,-22.84201 1.2844,-2.56189 3.1216,-8.25799 4.0827,-12.65799 2.0066,-9.1862 3.0171,-11.5 5.0225,-11.5 2.3796,0 3.378,3.19833 2.499,8.00534 -0.4503,2.46254 -0.6106,4.81407 -0.3563,5.22562 0.8764,1.41801 -1.6585,12.27412 -3.4485,14.76904 -2.3323,3.25065 -5.2838,12.60289 -4.567,14.47088 0.307,0.80011 -0.1514,3.60898 -1.0187,6.24193 -0.8674,2.63296 -1.9254,7.26219 -2.3511,10.28719 -0.7386,5.24802 -0.9187,5.51406 -3.9303,5.80698 -2.5523,0.24825 -3.301,-0.13442 -3.9132,-2 z m 42.9732,-5.33899 c -1.4652,-2.23616 -1.5158,-3.37537 -0.4328,-9.75 0.6744,-3.96989 1.0731,-8.79299 0.886,-10.71799 -0.2983,-3.06783 -0.649,-3.46549 -2.8403,-3.22053 -1.375,0.1537 -2.65,0.7162 -2.8333,1.25 -0.5465,1.59107 -4.5043,1.03947 -6.9032,-0.96209 -2.9146,-2.43188 -3.7774,-4.86728 -5.7272,-16.16607 -0.8897,-5.15511 -2.3122,-11.7625 -3.1612,-14.68307 -1.2137,-4.17487 -1.2857,-5.62099 -0.337,-6.76418 1.6919,-2.03857 3.2848,-1.81467 5.6626,0.79594 3.2336,3.55019 4.0556,5.74011 6.3135,16.8198 1.1653,5.71803 2.3315,10.60928 2.5917,10.86945 1.1543,1.1543 7.4416,-3.51955 8.917,-6.62874 0.8955,-1.8872 2.2162,-3.65689 2.9347,-3.93263 0.7186,-0.27574 1.597,-2.3176 1.9519,-4.53746 1.0265,-6.41942 3.2357,-10.84042 5.417,-10.84042 4.8113,0 5.597,6.28723 2.2495,18 -3.0968,10.83536 -4.0886,15.83097 -4.7333,23.8407 -0.3391,4.21262 -0.9554,8.1093 -1.3695,8.6593 -0.4141,0.55 -0.7462,2.25241 -0.7381,3.78314 0.016,2.97803 -2.6932,6.71686 -4.867,6.71686 -0.7271,0 -2.0686,-1.1394 -2.981,-2.53201 z m -106.99541,0.73103 c -4.36926,-0.62376 -5.60889,-8.11237 -1.60362,-9.6875 0.94156,-0.37028 8.50643,-0.85074 16.81081,-1.06769 14.88302,-0.38881 15.13112,-0.36014 17.35352,2.00551 2.2168,2.35969 2.2236,2.44233 0.4011,4.92602 -1.2663,1.72585 -3.1206,2.69235 -5.8535,3.051 -4.86981,0.6391 -24.18711,1.18969 -27.10831,0.77266 z m 42.12201,-144.63266 c -2.5354,-2.5354 -5.7634,-7.35202 -7.5397,-11.25 -2.9417,-6.45573 -3.1019,-7.44775 -3.029,-18.7503 0.08,-12.48393 0.8884,-17.25577 4.1148,-24.30516 1.0671,-2.33151 1.9402,-4.53903 1.9402,-4.90561 0,-0.36658 1.1018,-2.11101 2.4484,-3.87651 3.1828,-4.17293 10.3024,-7.47878 16.1064,-7.47878 7.5671,0 10.419,2.34455 15.5996,12.82451 2.9079,5.88241 3.0822,6.82608 2.4929,13.5 -0.7621,8.63044 -1.0676,10.25637 -3.5417,18.85077 -1.0569,3.67141 -1.674,6.92304 -1.3711,7.22584 0.3028,0.3028 0.049,1.15461 -0.5636,1.89292 -0.6127,0.7383 -1.6285,3.74117 -2.2573,6.67303 -0.9069,4.22894 -2.0685,6.22995 -5.6202,9.6818 -4.0561,3.94214 -4.9408,4.35113 -9.4115,4.35113 -4.5041,0 -5.3213,-0.38677 -9.3682,-4.43364 z m 13.4375,-6.17877 c 6.6752,-5.6168 12.0488,-22.24836 12.0488,-37.29164 0,-8.71038 -3.9761,-17.41972 -8.1743,-17.90504 -3.364,-0.38888 -10.0548,2.96128 -11.986,6.00148 -3.5526,5.59292 -5.9917,16.24331 -6.3595,27.76944 -0.349,10.93366 -0.2317,11.75158 2.5447,17.75 2.6117,5.64268 3.2139,6.28817 5.8661,6.28817 1.7275,0 4.2455,-1.08542 6.0602,-2.61241 z M 237.95706,614.7734 c -3.17881,-1.26736 -5.40857,-7.3077 -3.62145,-9.81037 3.64453,-5.10376 6.66823,-7.89879 7.99447,-7.38986 0.80719,0.30975 1.75255,0.10215 2.10079,-0.46132 0.34825,-0.56348 1.31041,-0.76462 2.13814,-0.44699 2.55965,0.98222 4.11825,5.5315 3.65384,10.66493 -0.37285,4.12152 -0.89784,5.11084 -3.57989,6.74627 -3.4484,2.10271 -4.87386,2.21715 -8.6859,0.69734 z m -2.2979,-33.0234 c -1.04505,-1.69535 -1.41916,-7.057 -1.51761,-21.75 -0.0719,-10.725 -0.34912,-29.625 -0.61613,-42 -0.26701,-12.375 -0.75388,-38.925 -1.08194,-59 -0.63208,-38.67824 -0.7866,-46.04982 -1.96,-93.5 -1.98127,-80.11941 -1.76619,-76.03161 -3.98348,-75.70908 -1.1,0.16 -3.35,1.77302 -5,3.58449 -4.18735,4.59714 -6.36324,5.62708 -9.42702,4.46224 -4.89899,-1.8626 -4.9139,-1.80156 4.60223,-18.83765 2.56229,-4.58709 7.52578,-18.13234 6.88074,-18.77738 -0.27679,-0.27679 0.22415,-1.90261 1.11319,-3.61294 3.12346,-6.00886 3.33086,-6.60771 3.33086,-9.61755 0,-2.30324 0.63109,-3.32255 2.61747,-4.22761 2.26867,-1.03367 2.83773,-0.9206 4.27025,0.8485 0.90903,1.1226 2.24358,5.60642 2.96567,9.96404 0.72208,4.35762 1.71394,8.82294 2.20413,9.92294 0.49018,1.1 1.84482,4.61346 3.0103,7.80769 1.57682,4.32161 4.03073,7.85187 9.59,13.7964 4.24954,4.54405 7.33539,8.68756 7.15657,9.60945 -0.17292,0.8914 -1.57451,2.04056 -3.11466,2.55368 -2.42159,0.8068 -3.62597,0.37851 -8.90628,-3.16713 C 244.43514,291.84504 240.68108,290 239.4511,290 l -2.23633,0 0.35557,28.75 c 0.19556,15.8125 0.57883,33.025 0.8517,38.25 0.27287,5.225 0.7495,35.375 1.05918,67 0.30968,31.625 0.76816,60.2 1.01884,63.5 0.45778,6.0263 1.97458,77.41662 1.854,87.26125 -0.044,3.59265 -0.63525,5.89198 -1.86424,7.25 -2.30529,2.54731 -3.12679,2.50288 -4.83066,-0.26125 z M 63.47207,529.96975 C 61.660272,527.9683 61.485806,526.15401 61.325354,507.64563 61.229298,496.56553 60.652913,482.55 60.044498,476.5 59.436082,470.45 58.707137,456.275 58.42462,445 c -0.282517,-11.275 -0.584537,-21.85 -0.671155,-23.5 -0.08662,-1.65 -0.06658,-6.24552 0.04452,-10.21227 L 58,404.07546 l 5.545065,0.0662 c 6.229224,0.0744 7.87784,1.55565 9.555849,8.58574 1.128275,4.72695 2.885172,23.3152 3.570133,37.77257 0.286637,6.05 0.8185,11.31809 1.181917,11.70686 0.363417,0.38878 6.057671,-0.17362 12.653897,-1.24976 6.596227,-1.07615 14.304549,-1.95673 17.129599,-1.95686 l 5.13645,-2.4e-4 0.68429,-4.56318 c 0.37636,-2.50975 0.64349,-11.39725 0.59361,-19.75 -0.0499,-8.35275 0.16768,-16.76182 0.48347,-18.68682 1.31843,-8.03717 1.37665,-8.14451 4.23761,-7.81306 2.02146,0.2342 3.32519,1.44551 5.17552,4.80865 2.37106,4.30959 2.48497,5.3392 2.75327,24.88583 0.15394,11.21463 0.65705,20.89161 1.11804,21.50441 1.13852,1.51345 1.68128,14.81416 1.68128,41.20092 l 0,22.08675 -2.81739,4.06424 c -3.62293,5.22629 -6.38918,6.00165 -9.68261,2.714 -2.33645,-2.33236 -2.50902,-3.20082 -2.63793,-13.27538 -0.0759,-5.92886 -0.68957,-13.43696 -1.36379,-16.68465 -0.72548,-3.4946 -1.07736,-10.82085 -0.86207,-17.9483 L 112.5,469.5 l -4.35794,-0.31277 c -2.39687,-0.17203 -8.246873,0.22356 -13.000004,0.87907 -4.753131,0.65552 -10.594964,1.40729 -12.981851,1.67061 l -4.339795,0.47876 0.636981,13.64217 c 0.35034,7.50319 1.073416,16.44861 1.606836,19.8787 0.53342,3.4301 1.073975,9.57115 1.201234,13.64676 0.280542,8.98472 -1.345518,11.5978 -7.141241,11.47597 -1.993321,-0.0419 -4.761788,0.23097 -6.15215,0.6064 -1.896103,0.51198 -3.020825,0.13809 -4.5,-1.49592 z M 1074.8809,468.63801 c -0.9068,-1.9903 -0.5039,-3.42194 2.5606,-9.09755 2.0002,-3.70456 5.1941,-9.04815 7.0976,-11.87466 1.9035,-2.82651 3.4609,-5.46005 3.4609,-5.85232 0,-1.73182 6.9521,-11.07576 14,-18.81662 0.825,-0.90611 2.5156,-3.63859 3.7569,-6.07217 1.2413,-2.43358 4.5033,-8.02469 7.2489,-12.42469 2.7456,-4.4 5.9484,-9.99136 7.1174,-12.42525 1.169,-2.43389 2.9345,-5.29366 3.9233,-6.35504 0.9888,-1.06139 2.3241,-3.20019 2.9672,-4.7529 1.5126,-3.65162 3.3596,-4.29489 6.058,-2.10986 1.8224,1.47575 2.0623,2.38726 1.4997,5.69986 -0.3683,2.16876 -1.8851,6.06927 -3.3706,8.66782 -6.1022,10.67468 -14.4257,23.64929 -18.9195,29.49136 -10.2361,13.30753 -16.0844,22.37992 -24.3564,37.78401 -2.0386,3.7963 -9.0963,10.5 -11.0545,10.5 -0.5023,0 -1.3976,-1.0629 -1.9895,-2.36199 z m 59.7617,-2.66622 c -1.5716,-0.47096 -3.6789,-1.59968 -4.6829,-2.50825 -2.0286,-1.8359 -6.9013,-1.2921 -10.4322,1.16423 -4.4744,3.11276 -9.5275,0.85638 -9.5275,-4.25438 0,-2.10084 9.7293,-11.60422 15.8739,-15.50533 5.0109,-3.18131 5.7997,-4.17794 10.6092,-13.40513 3.8919,-7.46659 4.5578,-12.9813 1.8103,-14.99036 -1.3834,-1.01157 -2.141,-0.96332 -4,0.25477 -1.2614,0.82647 -2.2956,2.01343 -2.2984,2.63767 0,0.62424 -1.1115,2.48499 -2.464,4.13499 l -2.4591,3 -0.1944,-4 c -0.3254,-6.69485 0.017,-7.89838 3.0285,-10.64942 2.7042,-2.47018 3.2283,-2.58353 7.7472,-1.6755 7.5396,1.51501 9.3468,4.18173 9.3468,13.79219 l 0,7.85575 -9.5,9.70289 c -5.225,5.3366 -9.5,10.22331 -9.5,10.85938 0,0.63606 1.9472,2.22017 4.327,3.52023 3.8551,2.1059 4.7224,2.23329 7.9509,1.16779 1.993,-0.65777 5.2879,-2.3253 7.3219,-3.70563 3.9286,-2.66596 7.9893,-2.60192 9.0425,0.14259 0.8486,2.21147 -5.1539,9.07489 -9.9797,11.41103 -4.5433,2.19934 -7.3638,2.44585 -12.02,1.05049 z m -109.8512,-21.53033 c -0.9331,-2.04794 -0.8323,-3.59457 0.5054,-7.75 0.9191,-2.8553 2.1671,-7.21646 2.7733,-9.69146 0.6062,-2.475 2.5821,-9 4.3909,-14.5 3.1917,-9.70465 4.0668,-13.18372 6.5874,-26.19061 1.3084,-6.75139 3.0835,-8.40494 6.0962,-5.67851 1.7168,1.55363 1.8554,1.55543 1.8554,0.0241 0,-3.83433 4.4558,-0.51526 5.8331,4.34501 0.5455,1.925 1.9004,5.75 3.011,8.5 1.1106,2.75 2.3875,6.42711 2.8376,8.17136 l 0.8183,3.17135 10.6142,-10.17135 c 5.983,-5.73327 11.1697,-11.60611 11.8872,-13.45958 1.5726,-4.06242 3.9113,-5.48002 6.2361,-3.78005 3.342,2.44368 3.606,5.57493 1.1417,13.54011 -2.9997,9.69584 -4.0612,14.94439 -5.8707,29.02816 -2.1747,16.92511 -2.4556,18.26941 -4.3759,20.93695 -2.4093,3.34682 -3.3287,3.4115 -5.5347,0.38934 -1.8545,-2.54059 -1.8588,-2.99708 -0.1713,-18.21609 0.952,-8.58561 2.0909,-17.5227 2.5309,-19.8602 0.44,-2.3375 0.5171,-4.24591 0.1713,-4.24091 -0.3459,0.005 -2.6538,3.2475 -5.1288,7.20554 -6.5066,10.40538 -8.7286,12.79471 -11.8389,12.73004 -4.4786,-0.0931 -7.3432,-4.87119 -8.2689,-13.79227 -1.7939,-17.28865 -2.2015,-20.1524 -2.8686,-20.1524 -0.6102,0 -3.3233,13.10359 -4.7288,22.83957 -0.2651,1.83676 -1.79,6.51115 -3.3885,10.38754 -1.5984,3.87638 -2.9063,7.52198 -2.9063,8.10133 0,2.73621 -5.495,18.31663 -6.8497,19.42156 -2.3551,1.92085 -4.0794,1.49982 -5.3589,-1.30854 z m 7.5902,-24.9934 c 0.3415,-0.88992 0.1738,-1.29132 -0.3931,-0.94098 -0.5437,0.33602 -0.9885,1.0344 -0.9885,1.55194 0,1.43843 0.7168,1.12146 1.3816,-0.61096 z m -44.36002,17.59226 c -0.57683,-1.07782 -1.33052,-4.0151 -1.67485,-6.5273 -0.34433,-2.51219 -1.03508,-4.82041 -1.535,-5.12937 -0.49991,-0.30897 -6.56125,-0.68722 -13.46964,-0.84056 -9.35603,-0.20767 -12.78649,-0.63143 -13.44565,-1.66094 -1.25865,-1.96584 2.56344,-4.87351 6.46434,-4.91777 1.72657,-0.0196 5.75629,-0.66088 8.95493,-1.42508 4.27645,-1.0217 6.60584,-1.11401 8.80105,-0.34875 1.64193,0.57238 3.29986,0.72625 3.68429,0.34194 0.38442,-0.38432 0.73098,-4.25588 0.77012,-8.60346 0.0391,-4.34759 0.34273,-8.17627 0.67464,-8.50818 1.00642,-1.00641 4.75419,0.62002 4.75419,2.0632 0,0.74211 0.44559,1.49928 0.99019,1.68262 0.54461,0.18333 1.28264,3.13551 1.64006,6.5604 0.46166,4.42362 1.11613,6.38579 2.25981,6.77514 0.88547,0.30144 2.44155,1.69239 3.45794,3.091 1.7974,2.47323 1.7974,2.58132 0,3.94306 -1.01639,0.77007 -2.61967,1.41443 -3.56282,1.43193 -2.35121,0.0436 -3.67555,2.89181 -3.60836,7.76037 0.031,2.2468 -0.24765,4.57702 -0.61924,5.17826 -1.06466,1.72266 -3.38783,1.27887 -4.536,-0.86651 z M 478.5,435 c -0.33992,-0.55 -0.16803,-1 0.38197,-1 0.55,0 1.27811,0.45 1.61803,1 0.33992,0.55 0.16803,1 -0.38197,1 -0.55,0 -1.27811,-0.45 -1.61803,-1 z m 594.0882,-169.90253 c -1.5251,-1.68526 -1.5999,-2.7784 -0.655,-9.57236 0.5868,-4.2184 1.0668,-10.07217 1.0668,-13.00838 0,-2.9362 0.8942,-8.19113 1.9871,-11.67764 1.0929,-3.4865 1.9929,-6.77217 2,-7.3015 0.01,-0.52932 -2.2492,1.26571 -5.0141,3.98897 -4.2941,4.22953 -4.9385,5.35391 -4.4205,7.71241 0.441,2.00773 0.2172,2.76103 -0.82,2.76103 -3.943,0 -9.9777,-9.53672 -11.7065,-18.5 -1.2615,-6.5399 -2.5781,-11.44131 -4.2489,-15.81749 -1.291,-3.38148 -2.0736,-2.47279 -4.2519,4.93667 -0.8278,2.81554 -2.1846,5.68314 -3.0151,6.37244 -0.8327,0.69106 -1.5101,2.86072 -1.5101,4.83657 0,3.44784 -4.2505,17.81125 -8.0409,27.17181 -1.0022,2.475 -2.0677,6.29852 -2.3678,8.49672 -0.9105,6.66956 -6.0992,8.77109 -8.4643,3.42817 -1.2099,-2.73357 -1.1193,-3.76095 0.8162,-9.25 3.5632,-10.105 7.1632,-21.71749 9.0447,-29.17489 0.9713,-3.85 3.7251,-12.56943 6.1196,-19.3765 5.1412,-14.61542 7.0088,-16.44862 11.7596,-11.54305 4.0542,4.18634 11.0806,19.18252 11.7885,25.15977 0.8991,7.59095 1.89,8.42748 5.1314,4.33177 1.4922,-1.88541 4.1755,-4.98586 5.963,-6.88988 1.7875,-1.90403 3.25,-3.80851 3.25,-4.23219 0,-0.42368 1.7826,-3.02544 3.9613,-5.7817 2.1787,-2.75626 4.2443,-6.13911 4.5902,-7.51744 0.8294,-3.30444 3.2642,-4.12585 5.7058,-1.92489 2.9686,2.67601 1.8864,9.82055 -4.5975,30.35291 -4.86,15.38954 -5.6102,18.87665 -6.0241,28 -0.2601,5.73166 -0.9484,11.6587 -1.5295,13.1712 -1.2435,3.23625 -4.0285,3.59835 -6.518,0.84747 z M 984.78349,258.25 C 981.7996,254.82921 981,252.04284 981,245.06574 L 981,238 l -7.42857,0 c -4.77137,0 -7.90125,-0.46714 -8.75,-1.30595 -0.72679,-0.71828 -2.10893,-1.60416 -3.07143,-1.96862 -0.9625,-0.36446 -1.75,-1.0641 -1.75,-1.55475 0,-0.95198 7.89624,-2.13767 14.5,-2.1773 6.25043,-0.0375 7,-0.96801 7,-8.6897 0,-5.65035 0.28923,-6.8254 1.75,-7.10972 1.14987,-0.2238 1.75211,0.28466 1.75616,1.48272 0.003,1.00282 0.63598,3.03051 1.40575,4.50596 0.76977,1.47545 1.69871,4.04454 2.06431,5.70909 l 0.66472,3.02645 7.42953,-0.48289 c 6.88233,-0.44733 7.42953,-0.33819 7.42953,1.48189 0,2.44317 -1.4759,3.40208 -5.07872,3.29964 -1.53477,-0.0436 -3.32502,0.56473 -3.97833,1.35192 -0.65331,0.78719 -1.80774,1.43126 -2.56539,1.43126 -0.75766,0 -1.39157,1.0125 -1.4087,2.25 -0.0581,4.19799 -1.05547,16.23873 -1.53241,18.5 -0.5679,2.69256 -2.55425,2.90601 -4.65296,0.5 z M 528.9518,224.62751 c -1.52783,-1.49725 -38.4244,-2.34799 -56.4518,-1.30164 -2.63826,0.15313 -2.96999,-0.12732 -2.75115,-2.32587 3.39992,-34.15583 4.34901,-71.3524 2.3672,-92.77449 -0.72632,-7.85097 -1.06035,-15.31132 -0.74229,-16.57856 0.7105,-2.83084 4.27787,-4.52957 7.62624,-3.63148 1.375,0.36879 3.175,0.35343 4,-0.0341 0.825,-0.38756 2.7375,-1.00049 4.25,-1.36205 2.11971,-0.50671 2.75,-0.29416 2.75,0.92741 0,0.87164 0.52863,2.56771 1.17473,3.76905 1.72885,3.2146 1.97158,56.83991 0.30183,66.68426 -0.69967,4.125 -1.27646,9.75 -1.28177,12.5 -0.009,4.81043 -1.39149,15.2921 -2.70332,20.5 l -0.62972,2.5 24.009,0 c 23.45266,0 24.05659,0.051 26.06284,2.20144 1.62271,1.73933 1.85819,2.71602 1.12181,4.65286 -0.51262,1.34828 -1.29729,2.66722 -1.74372,2.93096 -1.36622,0.80717 -6.87982,1.8127 -7.35988,1.34225 z M 558.69766,220.25 c -3.61442,-2.74242 -3.62325,-2.76791 -3.20632,-9.25 0.55454,-8.62139 1.64987,-31.62049 1.95263,-41 0.31094,-9.63324 1.33038,-14.48581 3.44529,-16.39978 1.5184,-1.37414 1.99362,-1.37336 4.65097,0.008 1.62787,0.84594 4.13188,1.30459 5.56445,1.01921 1.52599,-0.30398 3.53668,0.13394 4.85515,1.05743 2.21129,1.54884 2.2414,1.84824 1.72971,17.19593 -0.45029,13.50596 -1.68653,28.37303 -3.31306,39.84295 -0.36353,2.56353 -1.54463,3.94517 -5.77029,6.75 -2.92226,1.93968 -5.53166,3.5267 -5.79867,3.5267 -0.267,0 -2.11644,-1.2375 -4.10986,-2.75 z m 1.12833,-89.96212 c -4.50219,-2.79306 -6.07767,-8.8655 -3.83235,-14.77115 1.9059,-5.0129 11.64907,-6.71341 16.15188,-2.81903 3.66846,3.17276 3.1341,12.6099 -0.99387,17.5523 -1.86703,2.23539 -7.75172,2.25508 -11.32566,0.0379 z"
     id="path3163"
     inkscape:connector-curvature="0" />
</svg>
