<svg xmlns="http://www.w3.org/2000/svg" id="svg-qubit" width="320" height="320">

	<text x="40" y="40" font-weight="bold"> а) </text>

	<!-- Axes arrow -->
	<marker id="triangle" viewBox="0 0 2 2" refX="0" refY="1" markerUnits="userSpaceOnUse" markerWidth="10.0" markerHeight="10.0" orient="auto">
		<path d="M 0 0 L 2 1 L 0 2 z" fill="gray"/>
	</marker>

	<!-- Red arrow for the qubit Bloch vector  -->
	<marker id="qu-triangle" viewBox="0 0 2 2" refX="0" refY="1" markerUnits="userSpaceOnUse" preserveAspectRatio="none" markerWidth="9.982105789220368" markerHeight="10.0" orient="auto">
		<path d="M 0 0 L 2 1 L 0 2 z" fill="red"/>
	</marker>

	<!-- Axes and the Bloch sphere -->
	<g stroke="gray" fill="gray">

	<g id="xy">

	<circle cx="0" cy="0" r="1" fill="transparent" transform="matrix(-86.6000, 50.0, 100, 0, 160.0, 160.0)" vector-effect="non-scaling-stroke"/>

	<line x1="160.0" y1="160.0" x2="30.0" y2="235.00" marker-end="url(#triangle)"/> <!-- 0x -->

	<line x1="160.0" y1="160.0" x2="310.0" y2="160.0" marker-end="url(#triangle)"/> <!-- 0y -->

	</g>

	<g id="z">

	<line x1="160.0" y1="160.0" x2="160.0" y2="10.0" marker-end="url(#triangle)"/> <!-- 0z -->
	
	<circle cx="160.0" cy="160.0" r="100" fill="transparent"/>

	</g>

	</g>

	<!-- Labels -->
	<g fill="black">

	<text x="30.0" y="255.00"> x </text>
	<text x="310.0" y="177.0"> y </text>
	<text x="170.0" y="10.0"> z </text>

	<g id="points" fill="black">
	<circle cx="160.0" cy="60.0" r="3"/>
	<circle cx="160.0" cy="260.0" r="3"/>
	</g>

	<text x="165.0" y="53.0"> |+M⟩ </text>
	<text x="165.0" y="277.0"> |-M⟩ </text>

	</g>

	<!-- The Bloch vector projection eye-helpers -->
	<g id="xyhelpers" stroke="gray" stroke-width="1" stroke-dasharray="2 2">
	<line id="helpx" x1="160.43640546703253" y1="160" x2="160" y2="160"/>
	<line id="helpy" x1="160.43640546703253" y1="160" x2="160.43640546703253" y2="160.0"/>
	</g>
	<line id="helpxy" x1="160.43640546703253" y1="160" x2="160.43640546703253" y2="259.8201039319586" stroke="gray" stroke-width="1" stroke-dasharray="2 2"/>
	<!-- Bloch vector projections on 0x and 0y -->
	<g id="projs" stroke="black" stroke-width="1">
	<line id="projx" x1="160.0" y1="160.0" x2="160" y2="160"/>
	<line id="projy" x1="160.0" y1="160.0" x2="160.43640546703253" y2="160.0"/>
	</g>

	<!-- Bloch vector; length is 0.9 due to the arrowhead -->
	<line id="bloch-vector" x1="160.0" y1="160.0" x2="160.39276492032928" y2="249.83809353876273" stroke="red" stroke-width="3" marker-end="url(#qu-triangle)"/>

	<!-- Redraw elements if they are in front of the Bloch vector -->
	<g id="overxy" opacity="1">
	<use href="#xy" stroke="gray"/>
	<use href="#xyhelpers"/>
	<use href="#projs"/>
	</g>

	<g id="overz" opacity="0">
	<use href="#z" stroke="gray"/>
	<use href="#points"/>
	</g>

	<use id="overhelpxy" href="#helpxy" opacity="0"/>

	<!-- Trace of the Bloch vector tip -->
	<path id="trace" d="M 160.0 260.0 M 159.1667000000234 259.9930561111004 L 156.66697359019037 259.9097337838778 L 155.8344257785927 259.8750220538918 L 154.1699086610893 259.7778577516403 L 153.33845977246824 259.7223471369258 L 152.50747345379958 259.6599119132181 L 151.67700740766878 259.59055641593295 L 150.84711930107812 259.51428546107104 L 149.18861421963052 259.3341029056604 L 148.3608631401409 259.23711397820995 L 147.5339202693837 259.13323413581764 L 146.70784302935314 259.0224705917843 L 145.882688781935 258.9048310374075 L 145.05851482474353 258.7803236414184 L 144.2353783878627 258.6489570495282 L 142.59129486972148 258.3588235698351 L 141.77167079293707 258.2069269025569 L 140.95331247108103 258.0482108553829 L 140.1362767300461 257.88268644937904 L 138.5049638775485 257.5244501773332 L 137.69229263424364 257.3385600518596 L 136.88117041335428 257.1459108449195 L 136.0716535383063 256.9465159338598 L 134.455942903798 256.52079867830645 L 133.65163508843426 256.30123775350455 L 132.84915687408167 256.07498977769325 L 130.4473782046966 255.33620378545322 L 129.65294161857474 255.0833217479679 L 128.86061229847118 254.82383723025833 L 128.07044526285364 254.55776825064117 L 127.28249538004317 254.28513328465073 L 126.49681736423275 254.00595126369382 L 125.7134657723744 253.720241573983 L 124.15152422634628 253.12279087675608 L 123.37553200999207 252.81759918500393 L 122.60208295600518 252.50596234228507 L 121.83123077182856 252.18790198831567 L 121.0630289845815 251.8634402088533 L 120.29753093717554 251.53259953408985 L 119.5347897852794 251.19540293738004 L 118.01492719996773 250.49567971411437 L 117.2608267009312 250.13953418302324 L 116.50969396260516 249.7771294628238 L 115.76158114281247 249.4084907184972 L 115.01654018951353 249.03364354782514 L 114.27462283785034 248.65261397994368 L 112.79713837330212 247.86593108809524 L 112.06495156956558 247.46648832953565 L 111.33609332233604 247.06097199520207 L 110.6106142427204 246.64941024369818 L 109.88856470717995 246.23183165341487 L 108.45142500072765 245.37272310240735 L 107.7400140991353 244.93724063990769 L 106.32445004667035 244.04268392441062 L 105.6241223615479 243.58956973606212 L 104.92757047695687 243.1306511808595 L 104.23484276068623 242.66596012559737 L 103.54598731482864 242.19552883780236 L 102.86105197304246 241.7193899839071 L 101.49911661960894 240.7444142615169 L 100.82627341558661 240.2513195979028 L 100.15753916939607 239.75265237181543 L 99.49296031720041 239.2484472101528 L 98.83258300661676 238.73873912436127 L 97.5203231802638 237.69745283039913 L 96.87287030584628 237.17141445867253 L 96.22980090918023 236.64001738966368 L 95.59115964429009 236.10329852299463 L 94.3228220711415 235.00872267566302 L 93.69777438510276 234.4562262296296 L 93.07733065181326 233.8985596258451 L 92.4615339544684 233.3357615883035 L 91.85042705317022 232.76787119695354 L 90.63767771183588 231.61187873373146 L 90.04093592636445 231.0289098528222 L 89.44905202057751 230.4410088033262 L 88.86206709410776 229.84821640830867 L 87.69797671947958 228.64323088834936 L 87.12597267650304 228.03597161867975 L 86.55902892502051 227.42398800672913 L 85.99718483297622 226.80732254795964 L 84.8837739954232 225.55543552540254 L 84.33750055108612 224.92493991737484 L 83.79648102676984 224.28993599378873 L 83.26075299014865 223.65046784847362 L 82.1999542930158 222.35385228675744 L 81.68035964192484 221.70121472367194 L 81.16620341964692 221.0442926967863 L 80.65752132861888 220.38313182203626 L 80.15434869105016 219.71777800955223 L 79.65672044691054 219.04827746105516 L 78.67262185477226 217.69287537692486 L 78.19186712426985 217.01116820569058 L 77.71679305962518 216.3255022422757 L 77.24743264945347 215.63592509856295 L 76.78381848562017 214.9424846580231 L 76.32598276087779 214.2452290722369 L 75.42193177318528 212.8356509872084 L 74.98165229352124 212.1271930957902 L 74.54727639346622 211.41511554999698 L 74.11883423560015 210.69946779570233 L 73.69635557047042 209.98029952669128 L 73.2798697344353 209.25766068105088 L 72.04847747510429 207.05896056951278 L 71.65633515668955 206.32279281039416 L 71.27032732421138 205.5834084480076 L 70.89048078162482 204.8408588243817 L 70.51682190505173 204.09519550133746 L 69.78193137676688 202.59162116954082 L 69.42701539757107 201.83687648886996 L 69.07838870579911 201.07922670197667 L 68.73607550970115 200.3187244192204 L 68.40009957912523 199.55542244903467 L 67.74086890860815 198.01783177030873 L 67.42406631640591 197.24639651477662 L 67.11369209425699 196.4723749110198 L 66.809767794132 195.69582070607015 L 66.51231452019668 194.91678782298882 L 65.93039133435511 193.34902372501125 L 65.65249391966239 192.56282595686588 L 65.38114789097145 191.77436706226348 L 65.11637209019125 190.98370179074067 L 64.85818490317625 190.19088504556112 L 64.60660425809866 189.3959718788662 L 64.11669099077923 187.7979806509634 L 63.885050418021265 186.99705477611928 L 63.66008396057819 186.19425425578532 L 63.44180723982322 185.38963483536173 L 63.23023541274608 184.5832523870788 L 62.82053092847454 182.96365935557827 L 62.62917475506988 182.15226826883506 L 62.44457990359088 181.33933895319453 L 62.2667591920989 180.52492785756516 L 61.924690744397 178.89040475337882 L 61.76727700159151 178.07183147265607 L 61.6166844299341 177.25200330403374 L 61.472923486405634 176.43097717546902 L 61.19908482080696 174.78436112313886 L 61.0758867395713 173.96002648736285 L 60.95955783885539 173.13472248285723 L 60.850106196384914 172.30850641763456 L 60.74753941240965 171.4814356635814 L 60.55618980564577 169.82410512292887 L 60.474325537658714 168.99475767765747 L 60.39937222193291 168.16478564640616 L 60.331335063143314 167.33424666151066 L 60.27021878571466 166.50319839467537 L 60.16183648126021 164.8392955613372 L 60.12151063134873 164.00700810945162 L 60.088120232773605 163.1744424153747 L 60.061667604127024 162.3416562915433 L 60.04215458225015 161.50870756570058 L 60.029582522105514 160.6756540768807 L 60.04084297295172 162.3415733880285 L 60.0603553039936 163.17437044725693 L 60.086807332929865 164.0069470817282 L 60.15358711299207 165.67098739885634 L 60.20084345098542 166.50261377035594 L 60.25502973153226 167.33378860757972 L 60.316142192010844 168.1644541948517 L 60.38417658881464 168.99455285131376 L 60.534079806630416 170.6522518772099 L 60.62284502152072 171.4803617096223 L 60.71851087564431 172.3076743584723 L 60.82107072607057 173.13413237608873 L 61.0399641762682 174.78340033326072 L 61.16315425124181 175.607007768862 L 61.29320744697607 176.42953147118322 L 61.430114732721606 177.25091432509237 L 61.57386660178855 178.07109929467663 L 61.72445307220687 178.89002942720293 L 61.881863687419326 179.7076478570727 L 62.210311346631926 181.33741080830183 L 62.3881159908925 182.15081063772686 L 62.57269869593149 182.96267233947086 L 62.76404664453092 183.7729395387592 L 62.96214654970184 184.58155597153782 L 63.16698465560691 185.38846548837998 L 63.590108821424366 186.99523273471698 L 63.81506009584555 187.79674183909074 L 64.04669034558418 188.59632076841854 L 64.28498348654071 189.39391400100277 L 64.77486245726767 190.98093614324537 L 65.03302659814207 191.77229593258082 L 65.29778514014083 192.56144948898586 L 65.56911969878415 193.34834201468556 L 66.12490316678529 194.91286437846395 L 66.41583206564286 195.69270124983905 L 66.71325934514941 196.47005965969407 L 67.0171643522851 197.24488562912472 L 67.32752598422388 198.01712535507647 L 67.96111939544294 199.55104533935634 L 68.29069825624653 200.31525895076555 L 68.62664530907382 201.07667311538367 L 69.31122914319558 202.5880921704407 L 69.66611571524189 203.34084442816444 L 70.02727497185163 204.09058714580294 L 70.39468183452729 204.83726826205486 L 70.76831079102605 205.58083592837465 L 71.52796100258699 207.0553109302641 L 71.92007290855787 207.78928096269647 L 72.31830098680882 208.5199325605529 L 72.72261758482456 209.2472149881981 L 73.13299462730969 209.9710777439484 L 73.96581260905782 211.40492351112204 L 74.39416983666398 212.11827689385308 L 74.82847143800825 212.82801124134022 L 75.26868725566996 213.5340772704189 L 76.1608861874337 214.93133994117989 L 76.61862904315069 215.62615690534378 L 77.08216180873107 216.31711125112304 L 77.5514522967735 217.00415499911472 L 78.50148354396207 218.3624092743329 L 78.98781750043142 219.03748379108282 L 79.47977685284869 219.7084588105492 L 79.97732744010301 220.37528774097208 L 80.4804347128344 221.0379242784914 L 81.49769275894218 222.34624373107692 L 82.01722400793864 222.9960742034005 L 82.54217029426083 223.6415302983203 L 83.07249516622184 224.28256719608217 L 83.60816179865174 224.9191403837961 L 84.14913299545472 225.55120565852724 L 85.24160938904826 226.79712899655033 L 85.79822986496089 227.41545234706825 L 86.36000282935322 228.029094443474 L 87.49377571731631 229.23748317733526 L 88.07073166461683 229.83686977035717 L 88.65268230039688 230.43140696873127 L 89.82649212903287 231.6009186510036 L 90.42314258413494 232.1807026038337 L 91.02462437891577 232.75547440886805 L 91.63089574714785 233.32519415459106 L 92.2419145900209 233.88982228029656 L 93.47336236810972 234.9985552230385 L 94.72328828955818 236.08645690049286 L 95.35731673489218 236.6251243801259 L 95.99583389633383 237.15847109625275 L 96.63879543596084 237.6864600138701 L 97.28615670723823 238.20905447001397 L 98.58958880899885 239.23252038289445 L 99.2498334014751 239.73875152125623 L 99.91429641788307 240.23944568919194 L 100.58293171879231 240.73456811916535 L 101.25569287491041 241.22408443042497 L 102.60937346598985 242.18055661221388 L 103.29418404422019 242.65308617656012 L 103.98293221131011 243.11987640243018 L 105.3682080715453 244.03036984678357 L 106.06843314345886 244.47978159338652 L 106.77240316345677 244.923327157813 L 107.48006924864296 245.36097574075174 L 108.90269527029835 246.21256342135302 L 109.62110456126831 246.6323707570322 L 110.34301210692396 247.04616243722387 L 111.06836777849297 247.45390972851425 L 112.52587463798744 248.24511350177534 L 113.26122116877707 248.63458774576497 L 113.99981318844178 249.0179073024549 L 116.22517185319526 250.11223423134575 L 116.97607710102398 250.47075258085286 L 118.48386266349411 251.16266052568363 L 120.00317956377246 251.82924753505506 L 121.53360580331574 252.47032846078895 L 123.07471629739995 253.08572523895918 L 124.62608299418886 253.67526693976149 L 126.18727499296305 254.23878981471296 L 127.75785866414236 254.7761373422599 L 129.3373977690441 255.28716027102666 L 130.9254535820764 255.77171666161416 L 132.521585011914 256.22967192579273 L 134.12534872435927 256.66089886398754 L 134.93082399457023 256.8698003076349 L 135.73804004051107 257.07197521997165 L 136.54694080999639 257.26740956219646 L 137.3574701338554 257.4560897635657 L 138.16957172983237 257.6380027223359 L 143.05127658998418 258.4854049953969 L 143.87195546978776 258.6197999904634 L 145.51555305638266 258.8611977832189 L 147.16317377877132 259.07513632903925 L 148.8143600007847 259.26155620526094 L 149.6415065486199 259.3478735311889 L 151.29723820884416 259.4929137591962 L 152.12631265917625 259.55852519580543 L 152.95593384979068 259.61722339904634 L 154.61615449491256 259.7069505682316 L 155.4470125139743 259.74489061295156 L 156.27818668742867 259.77590448328436 L 157.94105191150035 259.81021891212635 L 158.77277046567175 259.8204454158356 L 159.6045742374801 259.8237404987153 L 160.43640546703253 259.8201039319586" fill="transparent" stroke="blue"/>

	<!-- Rotation buttons -->
	<g opacity="0">
	<polygon id="rot-x" points="160.0,160.0 30.0,250.0 30.0,220.0"/>
	<polygon id="rot-y" points="160.0,160.0 310.0,175.00 310.0,145.00"/>
	<polygon id="rot-z" points="160.0,160.0 145.00,10.0 175.00,10.0"/>
	</g>

</svg>
