


  


<svg id="svg-qubit" width="320" height="320"
	xmlns="http://www.w3.org/2000/svg">

	<!-- Axes arrow -->
	<marker id="triangle"
		viewBox="0 0 2 2" refX="0" refY="1" 
		markerUnits="userSpaceOnUse"
		markerWidth="10.0" markerHeight="10.0"
		orient="auto">
		<path d="M 0 0 L 2 1 L 0 2 z" fill="gray" />
	</marker>

	<!-- Red arrow for the qubit Bloch vector  -->
	<marker id="qu-triangle"
		viewBox="0 0 2 2" refX="0" refY="1" 
		markerUnits="userSpaceOnUse"
		preserveAspectRatio="none"
		markerWidth="10.0" markerHeight="10.0"
		orient="auto">
		<path d="M 0 0 L 2 1 L 0 2 z" fill="red"/>
	</marker>

	<!-- Axes and the Bloch sphere -->
	<g stroke="gray" fill="gray">

	<g id="xy">

	<circle cx="0" cy="0" r="1" fill="transparent"
		transform="matrix(-86.6000, 50.0, 100, 0, 160.0, 160.0)"
		vector-effect="non-scaling-stroke"/>

	<line x1="160.0" y1="160.0" x2="30.0" y2="235.00"
		marker-end="url(#triangle)"/> <!-- 0x -->

	<line x1="160.0" y1="160.0" x2="310.0" y2="160.0"
		marker-end="url(#triangle)"/> <!-- 0y -->

	</g>

	<g id="z">

	<line x1="160.0" y1="160.0" x2="160.0" y2="10.0"
		marker-end="url(#triangle)"/> <!-- 0z -->
	
	<circle cx="160.0" cy="160.0" r="100" fill="transparent"/>

	</g>

	</g>

	<!-- Labels -->
	<g fill="black">

	<text x="30.0" y="255.00"> x </text>
	<text x="310.0" y="177.0"> y </text>
	<text x="170.0" y="10.0"> z </text>

	<g id="points" fill="black">
	<circle cx="160.0" cy="60.0" r="3"/>
	<circle cx="160.0" cy="260.0" r="3"/>
	</g>

	<text x="165.0" y="53.0"> |1⟩ </text>
	<text x="165.0" y="277.0"> |0⟩ </text>

	</g>

	<!-- The Bloch vector projection eye-helpers -->
	<g id="xyhelpers" stroke="gray" stroke-width="1" stroke-dasharray="2 2">
	<line id="helpx" x1="160.0" y1="160.0" x2="160.0" y2="160.0"/>
	<line id="helpy" x1="160.0" y1="160.0" x2="160.0" y2="160.0"/>
	</g>
	<line id="helpxy" x1="160.0" y1="160.0" x2="160.0" y2="160.0"
		stroke="gray" stroke-width="1" stroke-dasharray="2 2"/>
	<!-- Bloch vector projections on 0x and 0y -->
	<g id="projs" stroke="black" stroke-width="1">
	<line id="projx" x1="160.0" y1="160.0" x2="160.0" y2="160.0"/>
	<line id="projy" x1="160.0" y1="160.0" x2="160.0" y2="160.0"/>
	</g>

	<!-- Bloch vector; length is 0.9 due to the arrowhead -->
	<line id="bloch-vector" x1="160.0" y1="160.0" x2="160.0" y2="250.0"
		stroke="red" stroke-width="3" marker-end="url(#qu-triangle)"/>

	<!-- Redraw elements if they are in front of the Bloch vector -->
	<g id="overxy" opacity="1">
	<use href="#xy" stroke="gray"/>
	<use href="#xyhelpers"/>
	<use href="#projs"/>
	</g>

	<g id="overz" opacity="0">
	<use href="#z" stroke="gray"/>
	<use href="#points"/>
	</g>

	<use id="overhelpxy" href="#helpxy"/>

	<!-- Trace of the Bloch vector tip -->
	<path id="trace" d="M 160.0 260.0" fill="transparent" stroke="blue"/>

	<!-- Rotation buttons -->
	<g opacity="0">
	<polygon id="rot-x" points="160.0,160.0 30.0,250.0 30.0,220.0"/>
	<polygon id="rot-y" points="160.0,160.0 310.0,175.00 310.0,145.00"/>
	<polygon id="rot-z" points="160.0,160.0 145.00,10.0 175.00,10.0"/>
	</g>

</svg>

